<?xml version="1.0" standalone="no"?>
<!DOCTYPE svg PUBLIC "-//W3C//DTD SVG 20010904//EN"
 "http://www.w3.org/TR/2001/REC-SVG-20010904/DTD/svg10.dtd">
<svg version="1.0" xmlns="http://www.w3.org/2000/svg"
 width="1000.000000pt" height="1000.000000pt" viewBox="0 0 1000.000000 1000.000000"
 preserveAspectRatio="xMidYMid meet">
<metadata>
Created by potrace 1.11, written by Peter Selinger 2001-2013
</metadata>
<g transform="translate(0.000000,1000.000000) scale(0.100000,-0.100000)"
fill="#000000" stroke="none">
<path d="M4138 8835 c-2 -1 -37 -5 -78 -9 -41 -3 -86 -8 -100 -10 -14 -3 -52
-9 -85 -15 -33 -6 -71 -12 -85 -15 -14 -2 -77 -18 -140 -34 -775 -203 -1431
-774 -1745 -1522 -56 -133 -115 -321 -149 -477 -7 -34 -29 -168 -29 -181 0 -6
-19 -17 -41 -23 -96 -25 -185 -53 -241 -76 -405 -165 -733 -472 -920 -858 -48
-100 -107 -255 -119 -316 -3 -13 -12 -55 -20 -94 -8 -38 -17 -86 -21 -105 -11
-62 -14 -373 -4 -440 5 -36 11 -78 14 -95 2 -16 9 -52 15 -80 6 -27 13 -59 16
-70 7 -35 45 -148 71 -210 250 -607 806 -1021 1453 -1082 41 -3 245 -7 453 -7
207 0 377 -3 378 -6 1 -3 2 -246 3 -540 3 -532 3 -535 26 -595 64 -168 198
-286 362 -319 46 -9 484 -12 1871 -11 l1812 1 64 23 c160 56 275 179 322 342
9 33 13 181 14 574 l1 530 25 2 c13 1 177 4 364 7 187 2 358 7 380 11 345 57
626 170 870 349 98 71 118 89 216 186 283 281 455 608 530 1004 24 127 34 432
17 551 -81 594 -393 1083 -891 1393 -84 53 -225 124 -293 148 l-50 17 23 79
c34 118 54 251 56 363 1 92 -10 252 -19 266 -2 3 -6 21 -9 40 -23 140 -111
350 -198 479 -77 111 -176 221 -285 313 -171 145 -438 260 -683 294 -70 10
-287 10 -364 0 -300 -39 -578 -180 -803 -405 -46 -46 -46 -46 -91 -4 -39 37
-156 126 -241 182 -52 34 -106 70 -120 80 -43 28 -261 136 -350 173 -230 95
-463 154 -740 186 -67 7 -434 13 -442 6z m452 -478 c14 -3 48 -9 75 -13 28 -4
57 -9 65 -10 8 -2 30 -6 47 -9 18 -3 35 -6 38 -6 2 -1 53 -15 112 -33 398
-121 720 -324 998 -628 50 -54 174 -193 208 -231 9 -11 19 -18 21 -16 2 2 45
78 96 169 51 91 110 188 131 216 82 112 218 222 339 277 65 29 118 50 122 47
2 -1 15 3 30 9 90 34 331 36 458 3 89 -22 260 -103 320 -150 73 -56 180 -175
226 -247 92 -149 136 -298 137 -469 1 -164 -25 -281 -93 -416 -28 -56 -165
-278 -212 -343 -11 -16 -18 -30 -16 -32 3 -3 123 -28 188 -39 98 -17 243 -50
310 -72 514 -162 902 -622 978 -1159 9 -63 9 -322 1 -395 -9 -74 -46 -220 -76
-300 -140 -372 -439 -675 -808 -819 -55 -22 -112 -42 -125 -45 -153 -34 -213
-46 -255 -50 -71 -7 -656 -8 -663 -1 -3 3 -6 202 -7 443 -1 487 -2 493 -70
607 -49 81 -121 148 -201 186 -86 42 -156 55 -281 54 -57 0 -103 2 -104 5 -1
3 -2 133 -4 290 -3 234 -7 306 -24 404 -64 362 -243 675 -529 926 -186 162
-459 297 -697 343 -138 28 -147 28 -300 31 -334 6 -637 -82 -912 -267 -102
-69 -134 -96 -254 -218 -160 -163 -281 -364 -358 -595 -64 -191 -73 -260 -78
-584 -2 -157 -5 -296 -6 -310 -2 -24 -2 -24 -117 -26 -130 -1 -162 -7 -240
-41 -140 -62 -245 -186 -285 -338 -5 -16 -9 -226 -10 -465 -1 -240 -4 -440 -7
-446 -7 -11 -792 -11 -838 0 -13 3 -42 8 -63 11 -133 20 -352 110 -479 198
-221 152 -391 370 -482 617 -94 255 -100 569 -15 830 46 141 134 304 215 402
63 74 205 206 276 255 101 69 298 161 383 179 147 31 189 37 335 50 36 3 66 7
68 8 2 3 7 64 17 220 19 298 110 612 255 882 246 454 662 811 1164 998 137 51
332 97 472 111 38 4 71 9 73 11 7 6 420 -2 451 -9z m643 -1961 c342 -82 603
-288 758 -596 29 -57 56 -119 61 -139 5 -20 14 -54 19 -76 30 -117 38 -223 36
-470 l-2 -230 -1103 0 c-607 0 -1106 4 -1109 9 -8 11 -6 479 2 547 41 362 273
693 602 858 119 60 220 91 373 115 59 9 299 -3 363 -18z m1525 -1988 c9 -8 12
-249 12 -1142 0 -622 -4 -1136 -8 -1142 -10 -17 -3514 -17 -3524 0 -13 19 -10
2270 3 2283 14 14 3499 15 3517 1z"/>
<path d="M4880 3917 c-196 -53 -342 -244 -341 -447 0 -168 97 -327 247 -407
l60 -32 1 -170 c0 -196 6 -218 70 -260 73 -49 161 -30 212 45 23 33 24 43 25
211 l1 177 25 10 c91 40 185 128 230 216 24 48 31 69 47 140 5 23 4 140 -1
149 -3 4 -7 18 -9 32 -23 123 -123 243 -257 308 -68 32 -84 36 -170 38 -52 1
-115 -3 -140 -10z m192 -313 c90 -47 107 -178 31 -246 -114 -103 -287 5 -250
155 10 41 73 103 111 109 31 6 77 -2 108 -18z"/>
</g>
</svg>
